REM DIRINDEX 1\2,1\3
REM DIRNAME cjc133,folder01,folder02
TITLE ""
FILE "DISC1Track20.mp3" MP3
  TRACK 01 AUDIO
    TITLE "0:"
    INDEX 01 00:00:00
  TRACK 02 AUDIO
    TITLE "3:cjc133_0876"
    INDEX 01 00:00:15
  TRACK 03 AUDIO
    TITLE "0:"
    INDEX 01 00:01:19
  TRACK 04 AUDIO
    TITLE "2:cjc133_0877"
    INDEX 01 00:01:73
  TRACK 05 AUDIO
    TITLE "2:cjc133_0878"
    INDEX 01 00:04:01
  TRACK 06 AUDIO
    TITLE "2:cjc133_0879"
    INDEX 01 00:06:49
  TRACK 07 AUDIO
    TITLE "0:"
    INDEX 01 00:08:28
  TRACK 08 AUDIO
    TITLE "2:cjc133_0880"
    INDEX 01 00:09:00
  TRACK 09 AUDIO
    TITLE "2:cjc133_0881"
    INDEX 01 00:10:29
  TRACK 10 AUDIO
    TITLE "2:cjc133_0882"
    INDEX 01 00:12:73
  TRACK 11 AUDIO
    TITLE "0:"
    INDEX 01 00:14:49
  TRACK 12 AUDIO
    TITLE "2:cjc133_0883"
    INDEX 01 00:15:27
  TRACK 13 AUDIO
    TITLE "2:cjc133_0884"
    INDEX 01 00:16:20
  TRACK 14 AUDIO
    TITLE "2:cjc133_0885"
    INDEX 01 00:19:11
  TRACK 15 AUDIO
    TITLE "0:"
    INDEX 01 00:21:13
  TRACK 16 AUDIO
    TITLE "2:cjc133_0886"
    INDEX 01 00:21:57
  TRACK 17 AUDIO
    TITLE "2:cjc133_0887"
    INDEX 01 00:24:57
  TRACK 18 AUDIO
    TITLE "2:cjc133_0888"
    INDEX 01 00:28:13
  TRACK 19 AUDIO
    TITLE "0:"
    INDEX 01 00:30:48
  TRACK 20 AUDIO
    TITLE "2:cjc133_0889"
    INDEX 01 00:31:27
  TRACK 21 AUDIO
    TITLE "2:cjc133_0890"
    INDEX 01 00:32:54
  TRACK 22 AUDIO
    TITLE "2:cjc133_0891"
    INDEX 01 00:36:68
  TRACK 23 AUDIO
    TITLE "0:"
    INDEX 01 00:40:19
  TRACK 24 AUDIO
    TITLE "2:cjc133_0892"
    INDEX 01 00:40:72
  TRACK 25 AUDIO
    TITLE "2:cjc133_0893"
    INDEX 01 00:42:43
  TRACK 26 AUDIO
    TITLE "2:cjc133_0894"
    INDEX 01 00:46:66
  TRACK 27 AUDIO
    TITLE "0:"
    INDEX 01 00:50:27
  TRACK 28 AUDIO
    TITLE "2:cjc133_0895"
    INDEX 01 00:50:72
  TRACK 29 AUDIO
    TITLE "2:cjc133_0896"
    INDEX 01 00:53:60
  TRACK 30 AUDIO
    TITLE "2:cjc133_0897"
    INDEX 01 00:56:51
  TRACK 31 AUDIO
    TITLE "0:"
    INDEX 01 00:58:48
  TRACK 32 AUDIO
    TITLE "2:cjc133_0898"
    INDEX 01 00:59:20
  TRACK 33 AUDIO
    TITLE "2:cjc133_0899"
    INDEX 01 01:01:72
  TRACK 34 AUDIO
    TITLE "2:cjc133_0900"
    INDEX 01 01:05:26
  TRACK 35 AUDIO
    TITLE "0:"
    INDEX 01 01:07:63
  TRACK 36 AUDIO
    TITLE "2:cjc133_0901"
    INDEX 01 01:08:36
  TRACK 37 AUDIO
    TITLE "2:cjc133_0902"
    INDEX 01 01:10:63
  TRACK 38 AUDIO
    TITLE "2:cjc133_0903"
    INDEX 01 01:13:44
  TRACK 39 AUDIO
    TITLE "0:"
    INDEX 01 01:15:40
  TRACK 40 AUDIO
    TITLE "2:cjc133_0904"
    INDEX 01 01:16:14
  TRACK 41 AUDIO
    TITLE "2:cjc133_0905"
    INDEX 01 01:18:27
  TRACK 42 AUDIO
    TITLE "2:cjc133_0906"
    INDEX 01 01:21:00
  TRACK 43 AUDIO
    TITLE "0:"
    INDEX 01 01:22:56
  TRACK 44 AUDIO
    TITLE "2:cjc133_0907"
    INDEX 01 01:23:34
  TRACK 45 AUDIO
    TITLE "2:cjc133_0908"
    INDEX 01 01:25:74
  TRACK 46 AUDIO
    TITLE "2:cjc133_0909"
    INDEX 01 01:29:27
  TRACK 47 AUDIO
    TITLE "0:"
    INDEX 01 01:31:57
  TRACK 48 AUDIO
    TITLE "2:cjc133_0910"
    INDEX 01 01:32:33
  TRACK 49 AUDIO
    TITLE "2:cjc133_0911"
    INDEX 01 01:34:63
  TRACK 50 AUDIO
    TITLE "2:cjc133_0912"
    INDEX 01 01:37:30
  TRACK 51 AUDIO
    TITLE "0:"
    INDEX 01 01:39:10
  TRACK 52 AUDIO
    TITLE "2:cjc133_0913"
    INDEX 01 01:39:63
  TRACK 53 AUDIO
    TITLE "2:cjc133_0914"
    INDEX 01 01:42:55
  TRACK 54 AUDIO
    TITLE "2:cjc133_0915"
    INDEX 01 01:45:47
  TRACK 55 AUDIO
    TITLE "0:"
    INDEX 01 01:47:44
  TRACK 56 AUDIO
    TITLE "2:cjc133_0916"
    INDEX 01 01:48:20
  TRACK 57 AUDIO
    TITLE "2:cjc133_0917"
    INDEX 01 01:49:67
  TRACK 58 AUDIO
    TITLE "2:cjc133_0918"
    INDEX 01 01:52:51
  TRACK 59 AUDIO
    TITLE "0:"
    INDEX 01 01:54:44
  TRACK 60 AUDIO
    TITLE "2:cjc133_0919"
    INDEX 01 01:55:18
  TRACK 61 AUDIO
    TITLE "2:cjc133_0920"
    INDEX 01 01:56:69
  TRACK 62 AUDIO
    TITLE "2:cjc133_0921"
    INDEX 01 02:00:00
  TRACK 63 AUDIO
    TITLE "0:"
    INDEX 01 02:02:07
